<?xml version="1.0" encoding="UTF-8"?>
<svg width="191px" height="30px" viewBox="0 0 191 30" version="1.1" xmlns="http://www.w3.org/2000/svg" xmlns:xlink="http://www.w3.org/1999/xlink">
    <!-- Generator: Sketch 53.2 (72643) - https://sketchapp.com -->
    <title>a/logo/red</title>
    <desc>Created with Sketch.</desc>
    <g id="Produktdetailseite" stroke="none" stroke-width="1" fill="none" fill-rule="evenodd">
        <g id="Produktdetailseite-V4" transform="translate(-60.000000, -60.000000)" fill="#E6001E">
            <g id="m/topnav" transform="translate(60.000000, 10.000000)">
                <g id="a/logo/red" transform="translate(0.000000, 50.000000)">
                    <g id="Fill-1">
                        <path d="M104.209236,14.2303185 C106.935768,14.2303185 108.48182,12.8849045 108.48182,10.7256688 C108.48182,8.48369427 106.894937,7.26133758 104.168405,7.26133758 L99.123462,7.26133758 L99.123462,14.2303185 L104.209236,14.2303185 Z M163.822025,14.2303185 C166.548557,14.2303185 168.094609,12.8849045 168.094609,10.7256688 C168.094609,8.48369427 166.507916,7.26133758 163.781384,7.26133758 L158.735678,7.26133758 L158.735678,14.2303185 L163.822025,14.2303185 Z M117.189932,28.8598089 L108.237215,28.8598089 L103.517777,20.3421019 L99.123462,20.3421019 L99.123462,28.8598089 L91.351224,28.8598089 L91.351224,0.741210191 L104.657616,0.741210191 C111.248993,0.741210191 116.254058,3.67509554 116.254058,10.3587898 C116.254058,14.4747134 114.17949,17.2047134 111.08605,18.7528662 L117.189932,28.8598089 Z M176.802912,28.8598089 L167.850194,28.8598089 L163.130375,20.3421019 L158.735678,20.3421019 L158.735678,28.8598089 L150.96344,28.8598089 L150.96344,0.741210191 L164.268878,0.741210191 C170.860637,0.741210191 175.866847,3.67509554 175.866847,10.3587898 C175.866847,14.4747134 173.790943,17.2047134 170.699029,18.7528662 L176.802912,28.8598089 Z M59.1239592,0.741210191 L67.0177368,0.741210191 L67.0177368,17.0828025 C67.0177368,21.0351592 68.9305068,22.9509554 72.0226116,22.9509554 C75.1152888,22.9509554 77.0280588,21.0351592 77.0280588,17.0828025 L77.0280588,0.741210191 L84.9218364,0.741210191 L84.9218364,16.9190446 C84.9218364,25.9658599 79.9171524,30 72.0226116,30 C64.1286432,30 59.1239592,25.9658599 59.1239592,16.9190446 L59.1239592,0.741210191 Z M41.707926,8.85038217 L38.5751808,17.734586 L44.840862,17.734586 L41.707926,8.85038217 Z M37.679184,0.537133758 L45.8583984,0.537133758 L57.0894588,28.8598089 L48.6658296,28.8598089 L46.9165752,23.8066242 L36.4992768,23.8066242 L34.74945,28.8598089 L26.5303584,28.8598089 L37.679184,0.537133758 Z M180.05796,24.3768153 C180.05796,21.3617197 182.499246,18.9972611 185.429743,18.9972611 C188.399545,18.9972611 190.8,21.3617197 190.8,24.3768153 C190.8,27.3101274 188.399545,29.7154777 185.429743,29.7154777 C182.499246,29.7154777 180.05796,27.3101274 180.05796,24.3768153 Z M3.7026648,19.6501911 C6.6323988,21.8094268 9.928278,23.0312102 13.2647976,23.0312102 C15.7055112,23.0312102 17.1712368,22.5019108 17.1712368,21.1576433 C17.1712368,19.8120382 15.909858,19.1604459 11.7588132,18.1414013 C5.8178736,16.7155414 1.2205476,14.9226115 1.2205476,9.13624204 C1.2205476,3.7977707 5.6556936,0.0078343949 12.5733384,0.0078343949 C16.8459228,0.0078343949 20.5485876,1.02630573 24.0076008,3.14598726 L20.752362,9.09496815 C18.0664704,7.54700637 15.3399384,6.5688535 12.3701364,6.5688535 C10.05039,6.5688535 9.1137528,7.30242038 9.1137528,8.48369427 C9.1137528,9.95082803 10.1318616,10.4810828 14.4046368,11.4993631 C20.8332612,13.0071975 24.9835428,14.9635032 24.9835428,20.4236943 C24.9835428,26.1701274 20.0603304,29.5931847 12.9803148,29.5931847 C8.097552,29.5931847 3.6211932,28.2074522 0,25.3958599 L3.7026648,19.6501911 Z M121.951728,0.741210191 L144.494176,0.741210191 L144.494176,7.34292994 L129.72263,7.34292994 L129.72263,11.6218471 L143.109731,11.6218471 L143.109731,17.7747134 L129.72263,17.7747134 L129.72263,22.2175796 L144.696424,22.2175796 L144.696424,28.8598089 L121.951728,28.8598089 L121.951728,0.741210191 L121.951728,0.741210191 Z"></path>
                    </g>
                </g>
            </g>
        </g>
    </g>
</svg>